<svg width="256" height="40" viewBox="0 0 256 40" fill="none" xmlns="http://www.w3.org/2000/svg">
<g clip-path="url(#clip0_122_206)">
<path d="M82.8602 17.0254H86.6237L81.5054 1.97168H77.1183L72 17.0254H75.7634L76.5161 14.6598H82.1075L82.8602 17.0254ZM77.5484 11.434L79.3118 5.90716L81.0753 11.434H77.5484Z" fill="white"/>
<path d="M93.6061 1.97168H87.9072V17.0254H91.348V12.2942H93.6061C96.5738 12.2942 98.8749 9.99318 98.8749 7.13297C98.8749 4.27275 96.5738 1.97168 93.6061 1.97168ZM93.6061 9.06845H91.348V5.19748H93.6061C94.6598 5.19748 95.434 6.03619 95.434 7.13297C95.434 8.22974 94.6598 9.06845 93.6061 9.06845Z" fill="white"/>
<path d="M106.291 1.97168H100.592V17.0254H104.033V12.2942H106.291C109.259 12.2942 111.56 9.99318 111.56 7.13297C111.56 4.27275 109.259 1.97168 106.291 1.97168ZM106.291 9.06845H104.033V5.19748H106.291C107.345 5.19748 108.119 6.03619 108.119 7.13297C108.119 8.22974 107.345 9.06845 106.291 9.06845Z" fill="white"/>
<path d="M121.191 17.0254H124.89L121.685 11.4985C123.341 10.6598 124.46 8.98243 124.46 7.13297C124.46 4.27275 122.159 1.97168 119.298 1.97168H113.277V17.0254H116.718V12.0792H118.352L121.191 17.0254ZM116.718 5.19748H119.298C120.245 5.19748 121.019 6.03619 121.019 7.13297C121.019 8.22974 120.245 9.06845 119.298 9.06845H116.718V5.19748Z" fill="white"/>
<path d="M147.069 17.0254H151.456L156.359 1.97168H152.596L149.262 13.0469L145.929 1.97168H142.165L147.069 17.0254Z" fill="white"/>
<path d="M161.094 13.7136V11.0469H166.47V7.77813H161.094V5.2835H167.008V1.97168H157.653V17.0254H167.115V13.7136H161.094Z" fill="white"/>
<path d="M175.078 1.97168H169.056V17.0254H175.078C179.228 17.0254 182.39 13.7566 182.39 9.49856C182.39 5.24049 179.228 1.97168 175.078 1.97168ZM175.078 13.7136H172.497V5.2835H175.078C177.444 5.2835 179.078 6.91791 179.078 9.49856C179.078 12.0792 177.444 13.7136 175.078 13.7136Z" fill="white"/>
<path d="M72.8611 34.4552L74.1526 33.7097C74.4257 34.6407 74.9262 35.3688 75.6542 35.8938C76.3823 36.4118 77.3203 36.6708 78.4684 36.6708C79.5885 36.6708 80.46 36.4258 81.0831 35.9358C81.7061 35.4458 82.0176 34.7877 82.0176 33.9617C82.0176 33.7167 81.9861 33.4891 81.9231 33.2791C81.8601 33.0691 81.7796 32.8871 81.6816 32.7331C81.5836 32.5721 81.4401 32.4181 81.2511 32.2711C81.0621 32.1171 80.8801 31.9875 80.7051 31.8825C80.537 31.7775 80.306 31.6655 80.012 31.5465C79.718 31.4205 79.4555 31.319 79.2245 31.242C79.0004 31.158 78.6994 31.053 78.3214 30.927C77.0683 30.5069 76.2388 30.2024 75.8327 30.0134C74.7687 29.5094 74.0756 28.8653 73.7536 28.0813C73.5856 27.6753 73.5016 27.2132 73.5016 26.6952C73.5016 26.0512 73.6241 25.4666 73.8691 24.9416C74.1211 24.4096 74.4572 23.9755 74.8772 23.6395C75.3042 23.2965 75.7942 23.034 76.3473 22.852C76.9073 22.663 77.5024 22.5684 78.1324 22.5684C79.3085 22.5684 80.327 22.873 81.1881 23.482C82.0491 24.084 82.6862 24.8611 83.0992 25.8131L81.8286 26.5272C81.5206 25.7851 81.0586 25.1831 80.4425 24.7211C79.8265 24.2591 79.0565 24.028 78.1324 24.028C77.2083 24.028 76.4558 24.2591 75.8747 24.7211C75.3007 25.1831 75.0137 25.8201 75.0137 26.6322C75.0137 26.9542 75.0662 27.2412 75.1712 27.4933C75.2832 27.7453 75.4197 27.9588 75.5807 28.1338C75.7487 28.3088 75.9868 28.4803 76.2948 28.6483C76.6098 28.8093 76.9108 28.9458 77.1978 29.0579C77.4848 29.1629 77.8664 29.2924 78.3424 29.4464C79.7565 29.9154 80.7366 30.2899 81.2826 30.57C82.3957 31.151 83.0922 31.8895 83.3722 32.7856C83.4772 33.1286 83.5297 33.5066 83.5297 33.9197C83.5297 35.2007 83.0607 36.2263 82.1226 36.9964C81.1916 37.7594 79.9665 38.1409 78.4474 38.1409C77.0753 38.1409 75.8992 37.8154 74.9192 37.1644C73.9391 36.5063 73.2531 35.6033 72.8611 34.4552Z" fill="white"/>
<path d="M86.0078 37.8782V22.8203H94.7128V24.2484H87.5094V29.5722H94.1773V31.0003H87.5094V36.4606H94.8284V37.8782H86.0078Z" fill="white"/>
<path d="M97.4116 37.8782V22.8203H98.9132V36.4606H105.802V37.8782H97.4116Z" fill="white"/>
<path d="M107.954 37.8782V22.8203H116.659V24.2484H109.456V29.5722H116.124V31.0003H109.456V36.4606H116.775V37.8782H107.954Z" fill="white"/>
<path d="M118.98 33.3841C118.588 32.4251 118.392 31.4135 118.392 30.3494C118.392 29.2854 118.588 28.2773 118.98 27.3252C119.372 26.3662 119.911 25.5401 120.597 24.8471C121.29 24.147 122.127 23.594 123.107 23.188C124.094 22.775 125.154 22.5684 126.288 22.5684C127.675 22.5684 128.949 22.9045 130.111 23.5765C131.273 24.2415 132.169 25.1376 132.799 26.2647L131.465 27.0417C130.996 26.1317 130.296 25.4036 129.365 24.8576C128.434 24.3046 127.409 24.028 126.288 24.028C125.049 24.028 123.94 24.3116 122.96 24.8786C121.98 25.4456 121.224 26.2087 120.692 27.1677C120.16 28.1268 119.894 29.1874 119.894 30.3494C119.894 31.5115 120.16 32.5721 120.692 33.5311C121.224 34.4902 121.98 35.2533 122.96 35.8203C123.94 36.3873 125.049 36.6708 126.288 36.6708C127.409 36.6708 128.434 36.3978 129.365 35.8518C130.303 35.3058 131.003 34.5777 131.465 33.6676L132.799 34.4132C132.176 35.5473 131.283 36.4538 130.121 37.1329C128.959 37.8049 127.682 38.1409 126.288 38.1409C125.154 38.1409 124.094 37.9379 123.107 37.5319C122.12 37.1189 121.283 36.5623 120.597 35.8623C119.911 35.1622 119.372 34.3362 118.98 33.3841Z" fill="white"/>
<path d="M133.775 24.2484V22.8203H144.528V24.2484H139.908V37.8782H138.396V24.2484H133.775Z" fill="white"/>
<path d="M146.681 37.8782V22.8203H148.182V37.8782H146.681Z" fill="white"/>
<path d="M151.375 33.3841C150.976 32.4181 150.776 31.4065 150.776 30.3494C150.776 29.2924 150.976 28.2843 151.375 27.3252C151.781 26.3662 152.327 25.5401 153.013 24.8471C153.706 24.147 154.532 23.594 155.491 23.188C156.457 22.775 157.479 22.5684 158.557 22.5684C159.635 22.5684 160.657 22.775 161.623 23.188C162.589 23.594 163.415 24.147 164.101 24.8471C164.794 25.5401 165.34 26.3662 165.739 27.3252C166.146 28.2843 166.349 29.2924 166.349 30.3494C166.349 31.7635 166.005 33.0691 165.319 34.2662C164.64 35.4563 163.702 36.4013 162.505 37.1014C161.308 37.7944 159.992 38.1409 158.557 38.1409C157.479 38.1409 156.457 37.9379 155.491 37.5319C154.532 37.1189 153.706 36.5658 153.013 35.8728C152.327 35.1727 151.781 34.3432 151.375 33.3841ZM153.097 27.1677C152.551 28.1338 152.278 29.1944 152.278 30.3494C152.278 31.5045 152.551 32.5651 153.097 33.5311C153.643 34.4972 154.395 35.2638 155.354 35.8308C156.32 36.3908 157.388 36.6708 158.557 36.6708C159.726 36.6708 160.79 36.3908 161.749 35.8308C162.715 35.2638 163.471 34.4972 164.017 33.5311C164.563 32.5651 164.836 31.5045 164.836 30.3494C164.836 29.1944 164.563 28.1338 164.017 27.1677C163.471 26.2017 162.715 25.4386 161.749 24.8786C160.79 24.3116 159.726 24.028 158.557 24.028C157.388 24.028 156.32 24.3116 155.354 24.8786C154.395 25.4386 153.643 26.2017 153.097 27.1677Z" fill="white"/>
<path d="M168.921 37.8782V22.8203H170.213L178.592 35.085V22.8203H180.104V37.8782H178.813L170.423 25.6239V37.8782H168.921Z" fill="white"/>
<path fill-rule="evenodd" clip-rule="evenodd" d="M133.646 17.4007C137.999 17.4007 141.528 13.9204 141.528 9.62731C141.528 7.92979 140.976 6.35935 140.04 5.08091C139.724 5.7174 139.541 6.38119 139.384 7.08165C139.34 7.27505 139.298 7.47417 139.255 7.67795V7.67804C138.993 8.92481 138.694 10.3457 137.739 11.6946C135.748 14.5094 132.637 15.4148 130.133 14.2967C129.961 14.8415 129.817 15.4094 129.699 16.0051C129.679 16.11 129.637 16.2054 129.58 16.2879C130.767 16.9943 132.158 17.4007 133.646 17.4007ZM128.305 15.3442C128.449 14.6854 128.624 14.057 128.832 13.4544C127.846 12.5268 127.38 11.145 127.385 9.74352C127.392 8.08438 128.049 6.29476 129.41 4.92485V4.92461C130.937 3.38883 133.353 2.52897 135.534 2.0786C134.929 1.93184 134.297 1.854 133.646 1.854C129.292 1.854 125.763 5.33423 125.763 9.62731C125.763 11.8883 126.742 13.9238 128.305 15.3442ZM130.662 12.8875C131.454 11.085 132.607 9.52434 134.168 8.00155C134.464 7.71228 134.47 7.23745 134.181 6.94097C133.892 6.6445 133.417 6.63866 133.12 6.92793C131.545 8.46456 130.334 10.0643 129.468 11.8923C129.093 11.3288 128.882 10.5872 128.885 9.74898C128.89 8.46837 129.402 7.0614 130.474 5.98216C131.956 4.491 134.679 3.67388 137.08 3.33134C137.434 3.28092 137.775 3.24154 138.098 3.21193C138.407 3.42132 138.701 3.65194 138.977 3.90167C138.403 4.85362 138.13 5.82174 137.92 6.75163C137.87 6.97577 137.823 7.19462 137.777 7.40889C137.51 8.65792 137.277 9.75108 136.515 10.8283L137.128 11.2619L136.515 10.8283C134.845 13.1886 132.442 13.7239 130.662 12.8875ZM130.474 5.98216L129.942 5.45339L130.474 5.98192V5.98216Z" fill="white"/>
<path opacity="0.3" d="M54.8999 0V40" stroke="white"/>
<g opacity="0.75">
<path opacity="0.5" d="M192 36.895V26.061H193.024V30.6771C193.355 30.1432 193.789 29.7252 194.326 29.423C194.863 29.1208 195.465 28.9697 196.133 28.9697C196.85 28.9697 197.513 29.1485 198.12 29.5061C198.732 29.8586 199.216 30.3472 199.573 30.9718C199.934 31.5963 200.115 32.2813 200.115 33.0268C200.115 33.7722 199.934 34.4572 199.573 35.0817C199.216 35.7063 198.732 36.1974 198.12 36.555C197.513 36.9075 196.85 37.0838 196.133 37.0838C195.465 37.0838 194.863 36.9327 194.326 36.6305C193.789 36.3283 193.355 35.9103 193.024 35.3764V36.895H192ZM193.897 30.8509C193.315 31.4402 193.024 32.1655 193.024 33.0268C193.024 33.888 193.315 34.6158 193.897 35.2102C194.484 35.7995 195.204 36.0941 196.057 36.0941C196.91 36.0941 197.628 35.7995 198.21 35.2102C198.797 34.6158 199.091 33.888 199.091 33.0268C199.091 32.1655 198.797 31.4402 198.21 30.8509C197.628 30.2566 196.91 29.9594 196.057 29.9594C195.204 29.9594 194.484 30.2566 193.897 30.8509Z" fill="white"/>
<path opacity="0.5" d="M200.559 29.1587H201.643L204.541 35.641L207.04 29.1587H208.116L204.819 37.6053C204.518 38.3709 204.092 38.9728 203.539 39.411C203.043 39.8039 202.498 40.0003 201.906 40.0003C201.841 40.0003 201.773 39.9978 201.703 39.9927V39.0332C201.773 39.0383 201.841 39.0408 201.906 39.0408C202.297 39.0408 202.646 38.9149 202.952 38.663C203.309 38.3709 203.597 37.9579 203.818 37.424L204.014 36.9405L200.559 29.1587Z" fill="white"/>
<path opacity="0.5" d="M213.355 36.895V26.061H219.445V27.0885H214.432V31.0775H219.212V32.0975H214.432V36.895H213.355Z" fill="white"/>
<path opacity="0.5" d="M221.131 36.895V25.6001H222.155V36.895H221.131Z" fill="white"/>
<path opacity="0.5" d="M223.848 33.0268C223.848 32.2712 224.014 31.5862 224.345 30.9718C224.681 30.3573 225.158 29.8712 225.775 29.5136C226.393 29.151 227.09 28.9697 227.868 28.9697C228.44 28.9697 228.97 29.083 229.456 29.3096C229.943 29.5363 230.347 29.8385 230.668 30.2163C230.989 30.594 231.24 31.0297 231.421 31.5233C231.602 32.0118 231.692 32.5231 231.692 33.057C231.692 33.1779 231.682 33.339 231.662 33.5405H224.895C225.005 34.3262 225.339 34.9483 225.896 35.4066C226.453 35.8649 227.143 36.0941 227.966 36.0941C228.548 36.0941 229.05 35.9732 229.471 35.7315C229.898 35.4847 230.222 35.1648 230.442 34.772L231.338 35.3008C231.002 35.8448 230.54 36.278 229.953 36.6003C229.371 36.9227 228.704 37.0838 227.951 37.0838C226.741 37.0838 225.755 36.7036 224.993 35.943C224.23 35.1774 223.848 34.2053 223.848 33.0268ZM224.895 32.5508H230.646C230.54 31.7348 230.224 31.1002 229.697 30.6469C229.175 30.1886 228.566 29.9594 227.868 29.9594C227.07 29.9594 226.4 30.1986 225.858 30.6771C225.321 31.1556 225 31.7802 224.895 32.5508Z" fill="white"/>
<path opacity="0.5" d="M232.226 36.8952L235.245 32.891L232.43 29.1587H233.642L235.847 32.0826L238.053 29.1587H239.272L236.464 32.891L239.475 36.8952H238.256L235.847 33.7069L233.446 36.8952H232.226Z" fill="white"/>
<path opacity="0.5" d="M244.865 36.895V26.061H245.941V36.895H244.865Z" fill="white"/>
<path opacity="0.5" d="M247.492 27.0885V26.061H255.2V27.0885H251.888V36.895H250.804V27.0885H247.492Z" fill="white"/>
</g>
<path d="M19.6 38.4C19.4052 38.4 19.2112 38.3965 19.0175 38.391L23.0231 27.6072H28.5356C29.5032 27.6072 30.5653 26.8786 30.8962 25.9884L35.242 14.2954C35.9529 12.381 34.8336 10.8148 32.754 10.8148H25.1065L18.6898 28.0873H18.6874L15.0497 37.8787C6.41936 35.8688 0 28.2691 0 19.2C0 10.3924 6.05431 2.97075 14.3083 0.708798L10.5548 10.8148H10.5537L4.31372 27.6072L8.46765 27.6076L13.7743 13.3382H16.8961L11.5895 27.6076L15.7419 27.6083L20.6871 14.2954C21.3985 12.381 20.279 10.8148 18.2014 10.8148H14.7096L18.7191 0.0201777C19.0114 0.00746665 19.3047 0 19.6 0C30.4248 0 39.2 8.59607 39.2 19.2C39.2 29.8038 30.4248 38.4 19.6 38.4ZM31.4591 13.328H28.3381L23.9674 25.0753H27.0885L31.4591 13.328Z" fill="white"/>
</g>
<defs>
<clipPath id="clip0_122_206">
<rect width="256" height="40" fill="white"/>
</clipPath>
</defs>
</svg>
