<svg width="222" height="34" viewBox="0 0 222 34" fill="none" xmlns="http://www.w3.org/2000/svg">
<g clip-path="url(#clip0_5_24)">
<path d="M71.8553 14.4714H75.119L70.6805 1.67572H66.876L62.4375 14.4714H65.7011L66.3538 12.4607H71.2026L71.8553 14.4714ZM67.249 9.71873L68.7782 5.02088L70.3075 9.71873H67.249Z" fill="#231F20"/>
<path d="M81.1742 1.67572H76.2322V14.4714H79.216V10.4499H81.1742C83.7477 10.4499 85.7432 8.494 85.7432 6.06282C85.7432 3.63163 83.7477 1.67572 81.1742 1.67572ZM81.1742 7.70797H79.216V4.41765H81.1742C82.0879 4.41765 82.7593 5.13055 82.7593 6.06282C82.7593 6.99507 82.0879 7.70797 81.1742 7.70797Z" fill="#231F20"/>
<path d="M92.1743 1.67572H87.2322V14.4714H90.2162V10.4499H92.1743C94.7481 10.4499 96.7435 8.494 96.7435 6.06282C96.7435 3.63163 94.7481 1.67572 92.1743 1.67572ZM92.1743 7.70797H90.2162V4.41765H92.1743C93.0883 4.41765 93.7595 5.13055 93.7595 6.06282C93.7595 6.99507 93.0883 7.70797 92.1743 7.70797Z" fill="#231F20"/>
<path d="M105.095 14.4714H108.303L105.524 9.77355C106.96 9.06066 107.93 7.63486 107.93 6.06282C107.93 3.63163 105.935 1.67572 103.454 1.67572H98.2323V14.4714H101.216V10.2671H102.633L105.095 14.4714ZM101.216 4.41765H103.454C104.275 4.41765 104.946 5.13055 104.946 6.06282C104.946 6.99507 104.275 7.70797 103.454 7.70797H101.216V4.41765Z" fill="#231F20"/>
<path d="M127.536 14.4714H131.341L135.593 1.67572H132.329L129.438 11.0897L126.548 1.67572H123.284L127.536 14.4714Z" fill="#231F20"/>
<path d="M139.699 11.6564V9.38969H144.361V6.6112H139.699V4.49077H144.827V1.67572H136.715V14.4714H144.92V11.6564H139.699Z" fill="#231F20"/>
<path d="M151.825 1.67572H146.603V14.4714H151.825C155.424 14.4714 158.166 11.6929 158.166 8.07357C158.166 4.45421 155.424 1.67572 151.825 1.67572ZM151.825 11.6564H149.587V4.49077H151.825C153.877 4.49077 155.294 5.88002 155.294 8.07357C155.294 10.2671 153.877 11.6564 151.825 11.6564Z" fill="#231F20"/>
<path d="M63.1842 29.2868L64.3042 28.6531C64.541 29.4445 64.975 30.0634 65.6063 30.5096C66.2377 30.9499 67.0512 31.1701 68.0468 31.1701C69.0181 31.1701 69.7739 30.9618 70.3142 30.5453C70.8545 30.1288 71.1246 29.5695 71.1246 28.8674C71.1246 28.6591 71.0973 28.4656 71.0427 28.2871C70.988 28.1086 70.9182 27.9539 70.8332 27.823C70.7483 27.6862 70.6238 27.5553 70.4599 27.4303C70.296 27.2994 70.1382 27.1893 69.9864 27.1C69.8407 27.0108 69.6403 26.9156 69.3854 26.8144C69.1304 26.7073 68.9028 26.6211 68.7025 26.5556C68.5081 26.4842 68.2471 26.395 67.9193 26.2879C66.8326 25.9308 66.1133 25.6719 65.7611 25.5113C64.8385 25.0829 64.2374 24.5354 63.9582 23.869C63.8125 23.5239 63.7396 23.1311 63.7396 22.6908C63.7396 22.1434 63.8459 21.6465 64.0583 21.2003C64.2769 20.7481 64.5683 20.3791 64.9325 20.0935C65.3028 19.8019 65.7278 19.5788 66.2074 19.4241C66.693 19.2635 67.2091 19.183 67.7554 19.183C68.7753 19.183 69.6585 19.442 70.4053 19.9596C71.1519 20.4713 71.7044 21.1318 72.0626 21.941L70.9607 22.548C70.6936 21.9172 70.293 21.4055 69.7587 21.0128C69.2245 20.6201 68.5568 20.4237 67.7554 20.4237C66.954 20.4237 66.3015 20.6201 65.7976 21.0128C65.2998 21.4055 65.0509 21.947 65.0509 22.6373C65.0509 22.911 65.0964 23.1549 65.1875 23.3692C65.2846 23.5834 65.403 23.7649 65.5426 23.9136C65.6883 24.0624 65.8948 24.2082 66.1619 24.351C66.435 24.4878 66.6961 24.6038 66.9449 24.6991C67.1938 24.7884 67.5247 24.8984 67.9375 25.0293C69.1638 25.428 70.0137 25.7463 70.4872 25.9844C71.4525 26.4783 72.0565 27.106 72.2993 27.8677C72.3904 28.1592 72.4359 28.4805 72.4359 28.8317C72.4359 29.9205 72.0292 30.7923 71.2157 31.4468C70.4083 32.0954 69.3459 32.4197 68.0286 32.4197C66.8387 32.4197 65.8188 32.143 64.969 31.5896C64.119 31.0303 63.5241 30.2627 63.1842 29.2868Z" fill="#231F20"/>
<path d="M74.585 32.1966V19.3973H82.1338V20.6112H75.8871V25.1365H81.6695V26.3503H75.8871V30.9916H82.2341V32.1966H74.585Z" fill="#231F20"/>
<path d="M84.4741 32.1966V19.3973H85.7763V30.9916H91.7502V32.1966H84.4741Z" fill="#231F20"/>
<path d="M93.6163 32.1966V19.3973H101.165V20.6112H94.9188V25.1365H100.701V26.3503H94.9188V30.9916H101.266V32.1966H93.6163Z" fill="#231F20"/>
<path d="M103.178 28.3764C102.838 27.5612 102.668 26.7014 102.668 25.7969C102.668 24.8925 102.838 24.0356 103.178 23.2263C103.518 22.4112 103.985 21.709 104.58 21.1199C105.181 20.5249 105.907 20.0548 106.757 19.7097C107.613 19.3587 108.532 19.183 109.515 19.183C110.718 19.183 111.823 19.4687 112.831 20.0399C113.838 20.6052 114.615 21.3669 115.162 22.3249L114.005 22.9853C113.598 22.2118 112.991 21.593 112.184 21.1289C111.376 20.6588 110.488 20.4237 109.515 20.4237C108.441 20.4237 107.479 20.6648 106.629 21.1467C105.78 21.6287 105.124 22.2773 104.663 23.0925C104.201 23.9077 103.971 24.8092 103.971 25.7969C103.971 26.7847 104.201 27.6862 104.663 28.5013C105.124 29.3166 105.78 29.9652 106.629 30.4472C107.479 30.9291 108.441 31.1701 109.515 31.1701C110.488 31.1701 111.376 30.938 112.184 30.4739C112.997 30.0098 113.604 29.391 114.005 28.6174L115.162 29.2511C114.621 30.2151 113.847 30.9856 112.839 31.5629C111.832 32.1341 110.724 32.4197 109.515 32.4197C108.532 32.4197 107.613 32.2471 106.757 31.902C105.901 31.551 105.175 31.0779 104.58 30.4829C103.985 29.8878 103.518 29.1857 103.178 28.3764Z" fill="#231F20"/>
<path d="M116.008 20.6112V19.3973H125.333V20.6112H121.326V32.1966H120.015V20.6112H116.008Z" fill="#231F20"/>
<path d="M127.2 32.1966V19.3973H128.502V32.1966H127.2Z" fill="#231F20"/>
<path d="M131.27 28.3764C130.924 27.5553 130.751 26.6954 130.751 25.7969C130.751 24.8984 130.924 24.0416 131.27 23.2263C131.622 22.4112 132.096 21.709 132.691 21.1199C133.292 20.5249 134.008 20.0548 134.84 19.7097C135.677 19.3587 136.564 19.183 137.499 19.183C138.433 19.183 139.32 19.3587 140.157 19.7097C140.995 20.0548 141.711 20.5249 142.306 21.1199C142.907 21.709 143.381 22.4112 143.727 23.2263C144.08 24.0416 144.256 24.8984 144.256 25.7969C144.256 26.9989 143.957 28.1086 143.362 29.1262C142.774 30.1378 141.96 30.941 140.922 31.5361C139.884 32.1251 138.743 32.4197 137.499 32.4197C136.564 32.4197 135.677 32.2471 134.84 31.902C134.008 31.551 133.292 31.0808 132.691 30.4918C132.096 29.8967 131.622 29.1916 131.27 28.3764ZM132.764 23.0925C132.29 23.9136 132.053 24.8151 132.053 25.7969C132.053 26.7787 132.29 27.6802 132.764 28.5013C133.237 29.3225 133.889 29.9741 134.721 30.4561C135.559 30.9321 136.485 31.1701 137.499 31.1701C138.512 31.1701 139.435 30.9321 140.267 30.4561C141.104 29.9741 141.76 29.3225 142.233 28.5013C142.707 27.6802 142.944 26.7787 142.944 25.7969C142.944 24.8151 142.707 23.9136 142.233 23.0925C141.76 22.2714 141.104 21.6227 140.267 21.1467C139.435 20.6648 138.512 20.4237 137.499 20.4237C136.485 20.4237 135.559 20.6648 134.721 21.1467C133.889 21.6227 133.237 22.2714 132.764 23.0925Z" fill="#231F20"/>
<path d="M146.486 32.1966V19.3973H147.607L154.873 29.8223V19.3973H156.184V32.1966H155.064L147.789 21.7804V32.1966H146.486Z" fill="#231F20"/>
<path fill-rule="evenodd" clip-rule="evenodd" d="M115.896 14.7906C119.671 14.7906 122.731 11.8323 122.731 8.18324C122.731 6.74035 122.253 5.40547 121.441 4.3188C121.167 4.85982 121.008 5.42404 120.872 6.01943C120.834 6.18382 120.798 6.35307 120.76 6.52628V6.52636C120.533 7.58612 120.274 8.79385 119.446 9.94041C117.719 12.333 115.021 13.1026 112.85 12.1522C112.701 12.6153 112.576 13.098 112.473 13.6043C112.456 13.6935 112.42 13.7746 112.37 13.8447C113.4 14.4452 114.606 14.7906 115.896 14.7906ZM111.265 13.0426C111.389 12.4826 111.541 11.9485 111.722 11.4362C110.867 10.6478 110.462 9.47325 110.467 8.28202C110.473 6.87175 111.043 5.35057 112.223 4.18615V4.18595C113.547 2.88053 115.642 2.14965 117.533 1.76684C117.009 1.64209 116.461 1.57593 115.896 1.57593C112.12 1.57593 109.06 4.53412 109.06 8.18324C109.06 10.1051 109.909 11.8352 111.265 13.0426ZM113.309 10.9544C113.995 9.42225 114.995 8.09572 116.349 6.80134C116.606 6.55547 116.611 6.15186 116.36 5.89985C116.11 5.64785 115.698 5.64289 115.44 5.88877C114.074 7.1949 113.024 8.55466 112.273 10.1085C111.948 9.62948 111.765 8.99912 111.768 8.28666C111.772 7.19814 112.216 6.00222 113.146 5.08486C114.431 3.81738 116.792 3.12283 118.874 2.83167C119.181 2.78881 119.477 2.75534 119.757 2.73017C120.025 2.90815 120.28 3.10418 120.519 3.31645C120.021 4.1256 119.785 4.94851 119.603 5.73891C119.559 5.92943 119.518 6.11545 119.479 6.29758C119.247 7.35926 119.045 8.28845 118.384 9.20406L118.916 9.57262L118.384 9.20406C116.936 11.2103 114.852 11.6653 113.309 10.9544ZM113.146 5.08486L112.684 4.63541L113.146 5.08466V5.08486Z" fill="#00AB8E"/>
<path opacity="0.3" d="M47.6085 0V34" stroke="#231F20"/>
<g opacity="0.5">
<path opacity="0.5" d="M166.5 31.3608V22.1519H167.388V26.0755C167.675 25.6217 168.051 25.2664 168.517 25.0096C168.983 24.7527 169.505 24.6242 170.084 24.6242C170.706 24.6242 171.281 24.7762 171.807 25.0802C172.338 25.3798 172.758 25.7951 173.067 26.326C173.38 26.8569 173.537 27.4391 173.537 28.0728C173.537 28.7064 173.38 29.2886 173.067 29.8194C172.758 30.3504 172.338 30.7678 171.807 31.0718C171.281 31.3714 170.706 31.5212 170.084 31.5212C169.505 31.5212 168.983 31.3928 168.517 31.1359C168.051 30.8791 167.675 30.5238 167.388 30.0699V31.3608H166.5ZM168.145 26.2233C167.64 26.7242 167.388 27.3407 167.388 28.0728C167.388 28.8048 167.64 29.4234 168.145 29.9287C168.654 30.4296 169.278 30.68 170.018 30.68C170.758 30.68 171.381 30.4296 171.885 29.9287C172.394 29.4234 172.649 28.8048 172.649 28.0728C172.649 27.3407 172.394 26.7242 171.885 26.2233C171.381 25.7181 170.758 25.4655 170.018 25.4655C169.278 25.4655 168.654 25.7181 168.145 26.2233Z" fill="#231F20"/>
<path opacity="0.5" d="M173.922 24.7847H174.862L177.375 30.2947L179.543 24.7847H180.476L177.617 31.9643C177.356 32.6151 176.986 33.1267 176.507 33.4992C176.076 33.8331 175.604 34.0001 175.09 34.0001C175.034 34.0001 174.975 33.998 174.914 33.9936V33.1781C174.975 33.1824 175.034 33.1845 175.09 33.1845C175.43 33.1845 175.732 33.0775 175.998 32.8634C176.307 32.6151 176.557 32.264 176.749 31.8102L176.918 31.3993L173.922 24.7847Z" fill="#231F20"/>
<path opacity="0.5" d="M185.019 31.3608V22.1519H190.3V23.0252H185.953V26.4159H190.098V27.2829H185.953V31.3608H185.019Z" fill="#231F20"/>
<path opacity="0.5" d="M191.762 31.3607V21.7601H192.65V31.3607H191.762Z" fill="#231F20"/>
<path opacity="0.5" d="M194.118 28.0727C194.118 27.4305 194.262 26.8482 194.549 26.326C194.841 25.8037 195.254 25.3905 195.789 25.0865C196.325 24.7783 196.93 24.6242 197.604 24.6242C198.1 24.6242 198.56 24.7205 198.981 24.9131C199.404 25.1058 199.754 25.3627 200.032 25.6838C200.311 26.0049 200.529 26.3752 200.685 26.7948C200.842 27.21 200.921 27.6446 200.921 28.0984C200.921 28.2012 200.912 28.3381 200.894 28.5094H195.026C195.122 29.1772 195.411 29.706 195.894 30.0956C196.377 30.4851 196.976 30.6799 197.689 30.6799C198.194 30.6799 198.629 30.5772 198.994 30.3717C199.365 30.162 199.646 29.89 199.837 29.5562L200.614 30.0056C200.322 30.468 199.922 30.8363 199.412 31.1102C198.908 31.3843 198.329 31.5212 197.676 31.5212C196.627 31.5212 195.772 31.198 195.111 30.5515C194.45 29.9008 194.118 29.0745 194.118 28.0727ZM195.026 27.6681H200.013C199.921 26.9745 199.647 26.4351 199.19 26.0498C198.738 25.6603 198.21 25.4655 197.604 25.4655C196.912 25.4655 196.331 25.6688 195.861 26.0755C195.396 26.4822 195.117 27.0131 195.026 27.6681Z" fill="#231F20"/>
<path opacity="0.5" d="M201.384 31.3608L204.002 27.9572L201.56 24.7847H202.611L204.524 27.27L206.437 24.7847H207.494L205.059 27.9572L207.67 31.3608H206.613L204.524 28.6507L202.442 31.3608H201.384Z" fill="#231F20"/>
<path opacity="0.5" d="M212.344 31.3608V22.1519H213.277V31.3608H212.344Z" fill="#231F20"/>
<path opacity="0.5" d="M214.622 23.0252V22.1519H221.306V23.0252H218.434V31.3608H217.494V23.0252H214.622Z" fill="#231F20"/>
</g>
<path d="M16.9969 32.64C16.8279 32.64 16.6597 32.637 16.4917 32.6323L19.9653 23.4661H24.7457C25.5848 23.4661 26.5058 22.8468 26.7928 22.0901L30.5614 12.1511C31.1779 10.5238 30.2073 9.19258 28.4039 9.19258H21.772L16.2076 23.8742H16.2055L13.0509 32.1969C5.56679 30.4885 0 24.0287 0 16.32C0 8.83354 5.25022 2.52514 12.408 0.602478L9.15299 9.19258H9.15204L3.7408 23.4661L7.34304 23.4665L11.9449 11.3375H14.6521L10.0503 23.4665L13.6512 23.4671L17.9396 12.1511C18.5565 10.5238 17.5857 9.19258 15.784 9.19258H12.756L16.233 0.017151C16.4865 0.00634665 16.7408 0 16.9969 0C26.384 0 33.9938 7.30666 33.9938 16.32C33.9938 25.3332 26.384 32.64 16.9969 32.64ZM27.2809 11.3288H24.5744L20.7842 21.314H23.4908L27.2809 11.3288Z" fill="#0096D9"/>
</g>
<defs>
<clipPath id="clip0_5_24">
<rect width="222" height="34" fill="white"/>
</clipPath>
</defs>
</svg>
